<svg class="main-svg" xmlns="http://www.w3.org/2000/svg" xmlns:xlink="http://www.w3.org/1999/xlink" width="700" height="450" viewBox="0 0 700 450"><rect x="0" y="0" width="700" height="450" style="fill: rgb(255, 255, 255); fill-opacity: 1;"/><defs id="defs-59b4d9"><g class="clips"><clipPath class="plotclip" id="clip59b4d9xyplot"><rect width="580" height="330"/></clipPath><clipPath class="axesclip" id="clip59b4d9x"><rect x="60" y="0" width="580" height="450"/></clipPath><clipPath class="axesclip" id="clip59b4d9y"><rect x="0" y="60" width="700" height="330"/></clipPath><clipPath class="axesclip" id="clip59b4d9xy"><rect x="60" y="60" width="580" height="330"/></clipPath></g><g class="gradients"/></defs><g class="bglayer"><rect class="bg" x="60" y="60" width="580" height="330" style="fill: rgb(255, 255, 255); fill-opacity: 1; stroke-width: 0;"/></g><g class="layer-below"><g class="imagelayer"/><g class="shapelayer"/></g><g class="cartesianlayer"><g class="subplot xy"><g class="layer-subplot"><g class="shapelayer"/><g class="imagelayer"/></g><g class="gridlayer" transform="translate(60,60)"><path class="xgrid crisp" d="M0,0v330" transform="translate(112.06,0)" style="stroke: rgb(238, 238, 238); stroke-opacity: 1; stroke-width: 1px;"/><path class="xgrid crisp" d="M0,0v330" transform="translate(224.11,0)" style="stroke: rgb(238, 238, 238); stroke-opacity: 1; stroke-width: 1px;"/><path class="xgrid crisp" d="M0,0v330" transform="translate(336.17,0)" style="stroke: rgb(238, 238, 238); stroke-opacity: 1; stroke-width: 1px;"/><path class="xgrid crisp" d="M0,0v330" transform="translate(448.22,0)" style="stroke: rgb(238, 238, 238); stroke-opacity: 1; stroke-width: 1px;"/><path class="xgrid crisp" d="M0,0v330" transform="translate(560.28,0)" style="stroke: rgb(238, 238, 238); stroke-opacity: 1; stroke-width: 1px;"/><path class="ygrid crisp" d="M0,0h580" transform="translate(0,239.41)" style="stroke: rgb(238, 238, 238); stroke-opacity: 1; stroke-width: 1px;"/><path class="ygrid crisp" d="M0,0h580" transform="translate(0,165.1)" style="stroke: rgb(238, 238, 238); stroke-opacity: 1; stroke-width: 1px;"/><path class="ygrid crisp" d="M0,0h580" transform="translate(0,90.8)" style="stroke: rgb(238, 238, 238); stroke-opacity: 1; stroke-width: 1px;"/><path class="ygrid crisp" d="M0,0h580" transform="translate(0,16.5)" style="stroke: rgb(238, 238, 238); stroke-opacity: 1; stroke-width: 1px;"/></g><g class="overgrid"/><g class="zerolinelayer" transform="translate(60,60)"><path class="xzl zl crisp" d="M0,0v330" transform="translate(0,0)" style="stroke: rgb(68, 68, 68); stroke-opacity: 1; stroke-width: 1px;"/><path class="yzl zl crisp" d="M0,0h580" transform="translate(0,313.71)" style="stroke: rgb(68, 68, 68); stroke-opacity: 1; stroke-width: 1px;"/></g><g class="overzero"/><path class="xlines-below"/><path class="ylines-below"/><g class="overlines-below"/><g class="xaxislayer-below"/><g class="yaxislayer-below"/><g class="overaxes-below"/><g class="plot" transform="translate(60, 60)" clip-path="url(#clip59b4d9xyplot)"><g class="imagelayer"/><g class="maplayer"/><g class="barlayer"/><g class="carpetlayer"/><g class="boxlayer"/><g class="scatterlayer"><g class="trace scatter trace2f6263" style="stroke-miterlimit: 2; opacity: 1;"><path class="js-line" d="M0,313.5L1.79,311.37L2.02,310.71L10.76,298.37L10.98,296.16L11.43,295.4L11.65,294.09L16.36,285.93L16.58,285.77L18.38,283.44L18.6,282.44L22.86,275.09L23.08,275.15L26.67,275.61L26.89,275.89L27.79,275.7L28.01,276.01L31.38,273.5L31.6,273.29L33.17,272.59L33.39,274.39L33.84,274.37L34.06,275.41L35.19,275.8L35.41,275.4L36.53,275.64L36.75,275.22L37.65,276.1L37.87,276.87L38.77,276.47L39,275.99L41.01,276.17L41.24,276.32L42.81,277.48L43.03,277.52L45.05,279.07L45.27,278.79L46.62,278.98L46.84,279.25L48.63,279.62L48.86,279.53L50.65,279.28L50.87,279.62L56.48,283.84L56.7,283.42L56.92,283.42L57.6,283.26L57.82,283.81L58.72,283.29L58.94,283.36L60.06,284.08L60.29,284.09L63.65,284.72L63.87,284.64L65.66,285.28L65.89,284.85L68.58,284.92L68.8,284.94L70.15,285.15L70.37,285.24L71.94,285.09L72.16,284.8L73.96,285.65L74.18,285.74L76.65,285.37L76.87,285.62L86.51,288.59L86.73,288.37L90.99,288.8L91.21,288.65L92.56,288.58L92.78,288.33L97.04,288.94L97.26,289.35L98.16,289.4L98.38,289.46L105.78,289.47L106,289.25L108.69,289.55L108.92,289.43L110.49,289.86L110.71,289.26L112.5,289.69L112.73,289.81L117.43,289.57L117.66,289.29L119.9,289.49L120.12,289.37L121.24,288.89L121.47,288.98L122.36,288.91L122.59,289.07L125.5,288.46L125.73,288.46L128.42,288.31L128.64,288L130.66,287.33L130.88,287.36L134.91,287.75L135.14,287.32L136.26,287.66L136.48,287.79L137.38,287.49L137.6,287.48L138.28,287.66L138.5,287.72L140.74,287.9L140.97,287.81L142.09,287.9L142.31,287.9L145.67,289.11L145.9,288.94L147.91,289.25L148.14,289.17L155.09,289.99L155.31,289.93L156.21,290.23L156.43,290.11L157.77,290.54L158,290.29L161.58,290.21L161.81,290.08L165.39,290.91L165.62,290.96L170.32,291.25L170.55,291.36L184,293.33L184.22,293.47L187.58,293.3L187.81,293.51L189.15,293.47L189.37,293.72L194.08,293.08L194.3,293.17L204.17,293.85L204.39,293.56L211.34,293.78L211.56,293.75L216.04,294.48L216.27,294.51L221.65,294.29L221.87,294.11L223.21,293.91L223.44,294.05L225.68,294.15L225.9,294.24L236.66,294.95L236.89,294.84L241.37,294.79L241.59,294.7L251.45,294.2L251.68,294.09L253.02,294.12L253.25,294.24L266.69,294.92L266.92,295.03L288.66,293.02L288.88,292.81L291.57,293.02L291.79,292.98L303,291.77L303.22,291.31L306.14,291.02L306.36,290.64L309.05,290.81L309.27,291.09L311.51,290.33L311.74,290.15L314.2,289.1L314.43,288.91L315.1,288.36L315.32,288.25L318.69,287.29L318.91,287.24L321.6,288.15L321.82,288.15L325.41,288.33L325.63,288.85L326.53,288.53L326.75,288.65L327.87,288.82L328.1,288.42L328.55,288.12L328.77,288.49L329,288.42L330.79,288L331.01,288.06L332.13,288.19L332.36,288.22L333.48,288.42L333.7,288.45L335.94,287.98L336.17,287.75L340.87,289.23L341.1,289.23L344.23,288.64L344.46,288.24L346.03,287.91L346.25,288L347.15,288.09L347.37,287.75L347.6,287.97L347.82,286.9L350.51,286.8L350.73,287.06L351.41,286.84L351.63,287.05L351.85,287.33L354.99,286.65L355.22,286.29L355.44,286.54L355.89,286.02L356.11,285.99L357.01,286.59L357.23,286.42L357.46,286.48L358.58,286.34L358.8,286.34L361.04,285.96L361.27,285.65L363.51,284.95L363.73,285L365.08,284.89L365.3,284.97L367.54,285.61L367.77,285.61L369.56,284.14L369.78,284.48L370.01,284.4L370.23,285.35L370.68,284.67L370.9,284.4L376.96,282.53L377.18,283.05L378.75,283.47L378.97,283.01L379.87,283.47L380.09,283.93L384.13,285.74L384.35,286.42L384.8,285.79L385.02,285.58L386.37,285.22L386.59,285.68L387.71,284.76L387.94,284.58L389.28,282.32L389.51,282.4L391.75,283.47L391.97,283.32L392.64,283.23L392.87,283.88L393.76,284.7L393.99,285.1L395.56,285.32L395.78,285.22L396.68,285.24L396.9,285.56L399.81,284.82L400.04,284.7L401.61,285.56L401.83,285.46L404.52,283.62L404.74,283.81L406.31,281.25L406.54,281.1L406.99,280.81L407.21,281.33L407.43,281.45L409.9,278.88L410.12,279.23L411.02,278.62L411.24,279.01L413.26,277.86L413.49,277.48L414.38,276.84L414.61,276.9L414.83,276.84L415.05,275.77L416.17,274.39L416.4,274.27L417.07,273.45L417.3,272.77L418.19,271.94L418.42,272.05L419.54,271.15L419.76,271.21L420.66,270.72L420.88,271.27L421.55,270.69L421.78,270.46L423.57,267.55L423.79,267.4L425.59,266.38L425.81,264.77L426.93,263.23L427.16,263.23L428.95,263.85L429.17,263.52L430.29,263.21L430.52,263.7L431.64,263.06L431.86,263.03L433.88,263L434.1,262.2L434.33,262.38L434.55,261.98L434.78,261.62L436.79,260.48L437.02,260L437.24,259.51L437.69,260.08L437.91,260.27L438.81,259.54L439.03,259.07L439.48,258.84L439.71,259.32L439.93,259.35L441.28,258.12L441.5,258.29L442.62,257.62L442.84,256.78L444.19,254.86L444.41,254.76L445.31,255.51L445.53,255.2L445.76,254.76L446.65,254.83L446.88,254.67L447.77,253.63L448,254.39L448.22,255.38L448.89,255.13L449.12,254.74L450.46,253.17L450.69,252.02L451.81,249.99L452.03,249.75L452.93,250.19L453.15,250.36L455.39,248.28L455.62,248.95L456.29,248.31L456.51,249.05L456.74,248.47L457.41,248.74L457.64,248.69L458.53,248.77L458.76,249.12L460.32,250.94L460.55,249.69L461.22,249.08L461.45,248.62L461.67,249.02L461.89,248.32L462.12,248.13L462.79,247.49L463.01,247.83L464.36,245.84L464.58,245.66L464.81,245.39L465.03,245.74L465.26,246.36L465.7,247.34L466.15,246.97L466.38,246.72L466.6,245.29L467.27,245.83L467.5,245.99L469.06,244.84L469.29,245.19L470.19,245.25L470.41,244.86L470.86,245.28L471.08,244.93L471.31,243.97L471.98,244.07L472.2,243.43L474,245.1L474.22,244.84L474.89,244.93L475.12,244.4L476.01,244.09L476.24,244.52L477.81,243.15L478.03,240.52L478.48,238.77L478.7,237.93L480.49,235.75L480.72,235.96L482.74,232.59L482.96,233.45L484.53,233.91L484.75,234.4L484.98,234.43L485.2,233.66L485.87,232.66L486.1,232.24L486.32,231.14L486.99,231.32L487.22,231.59L488.79,230.82L489.01,231.56L489.91,229.33L490.13,229.29L491.03,228.81L491.25,226.63L492.82,224.46L493.04,224.37L493.49,223.76L493.72,224.65L494.61,225.56L494.84,225.3L495.06,225.21L495.51,224.53L495.96,224.95L496.18,225.04L498.65,224.49L498.87,224.74L499.32,223.86L499.77,224.25L499.99,224.49L500.22,224.98L500.44,227.37L501.34,229.72L501.79,229.18L502.01,227.95L502.68,228.84L502.91,228.71L503.13,227.71L503.8,227.53L504.03,226.33L504.25,225.75L504.92,226.09L505.15,226.22L506.04,224.92L506.27,225.18L506.94,222.39L507.16,222.47L507.39,222.51L508.28,222.54L508.51,222.9L508.73,223.76L509.18,223.03L509.4,223.31L509.63,223.18L509.85,221.96L511.2,221.04L511.42,221.9L512.32,223.56L512.54,223.54L512.99,223.1L513.21,224.03L513.44,223.97L513.66,225.53L514.11,226.12L514.34,223.97L514.78,223.36L515.01,224.04L515.23,224.11L517.25,221.86L517.47,222.9L517.7,223.25L517.92,221.93L518.15,221.04L518.82,221.42L519.04,221.31L520.16,219.48L520.39,220.09L520.61,220.07L521.28,219.02L521.51,219.64L521.73,220.07L522.4,220.46L522.63,218.66L522.85,218.3L523.08,218.79L523.3,219.6L524.2,218.51L524.42,219.55L525.32,217.95L525.54,218.96L525.77,219.36L525.99,218.74L526.21,218.36L526.89,219.85L527.11,219.4L527.33,219.42L527.56,218.74L527.78,220.09L528.01,220.25L528.68,220.1L528.9,221.25L529.57,222.33L529.8,221.37L530.25,220.58L530.47,221.19L530.7,221.93L531.82,220.96L532.04,221.01L533.16,222.61L533.38,222.18L533.83,222.49L534.06,222L534.28,220.96L536.52,216.27L536.75,217.64L537.42,217.78L537.64,217.09L538.54,218.24L538.76,217.67L538.99,217.31L540.11,215.87L540.33,216.18L540.56,216.58L540.78,215.9L541,215.14L541.9,214.63L542.13,214.34L542.35,214.11L542.57,211.99L544.37,202.52L544.59,201.71L547.73,189.45L547.95,188.02L548.4,185.73L548.62,183.74L555.12,137.94L555.35,135.4L563.19,71.6L563.42,70.04L565.43,56.74L565.66,55.52L569.69,33.44L569.91,33.44L570.14,33.35L570.36,32.31L571.26,29.95L571.48,29.83L571.93,28.43L572.16,26.86L573.72,21.03L573.95,20.99L575.07,20.35L575.29,19.58L575.74,18.85L575.97,18.6L577.31,17.09L577.53,16.92L580,16.5" style="vector-effect: non-scaling-stroke; fill: none; stroke: rgb(31, 119, 180); stroke-opacity: 1; stroke-width: 2px; opacity: 1;"/><g class="points"/></g></g></g><g class="overplot"/><path class="xlines-above crisp" transform="translate(60,60)" d="M-1,330.5H580" style="fill: none; stroke-width: 1px; stroke: rgb(0, 0, 0); stroke-opacity: 0;"/><path class="ylines-above crisp" transform="translate(60,60)" d="M-0.5,0V330" style="fill: none; stroke-width: 1px; stroke: rgb(0, 0, 0); stroke-opacity: 0;"/><g class="overlines-above"/><g class="xaxislayer-above" transform="translate(60,60)"><g class="xtick"><text text-anchor="middle" x="0" y="343" transform="translate(0,0)" style="font-family: 'Open Sans', verdana, arial, sans-serif; font-size: 12px; fill: rgb(68, 68, 68); fill-opacity: 1; white-space: pre;">0</text></g><g class="xtick"><text text-anchor="middle" x="0" y="343" transform="translate(112.06,0)" style="font-family: 'Open Sans', verdana, arial, sans-serif; font-size: 12px; fill: rgb(68, 68, 68); fill-opacity: 1; white-space: pre;">500</text></g><g class="xtick"><text text-anchor="middle" x="0" y="343" transform="translate(224.11,0)" style="font-family: 'Open Sans', verdana, arial, sans-serif; font-size: 12px; fill: rgb(68, 68, 68); fill-opacity: 1; white-space: pre;">1000</text></g><g class="xtick"><text text-anchor="middle" x="0" y="343" transform="translate(336.17,0)" style="font-family: 'Open Sans', verdana, arial, sans-serif; font-size: 12px; fill: rgb(68, 68, 68); fill-opacity: 1; white-space: pre;">1500</text></g><g class="xtick"><text text-anchor="middle" x="0" y="343" transform="translate(448.22,0)" style="font-family: 'Open Sans', verdana, arial, sans-serif; font-size: 12px; fill: rgb(68, 68, 68); fill-opacity: 1; white-space: pre;">2000</text></g><g class="xtick"><text text-anchor="middle" x="0" y="343" transform="translate(560.28,0)" style="font-family: 'Open Sans', verdana, arial, sans-serif; font-size: 12px; fill: rgb(68, 68, 68); fill-opacity: 1; white-space: pre;">2500</text></g></g><g class="yaxislayer-above" transform="translate(60,60)"><g class="ytick"><text text-anchor="end" x="-1" y="4.199999999999999" transform="translate(0,313.71)" style="font-family: 'Open Sans', verdana, arial, sans-serif; font-size: 12px; fill: rgb(68, 68, 68); fill-opacity: 1; white-space: pre;">0</text></g><g class="ytick"><text text-anchor="end" x="-1" y="4.199999999999999" transform="translate(0,239.41)" style="font-family: 'Open Sans', verdana, arial, sans-serif; font-size: 12px; fill: rgb(68, 68, 68); fill-opacity: 1; white-space: pre;">50</text></g><g class="ytick"><text text-anchor="end" x="-1" y="4.199999999999999" transform="translate(0,165.1)" style="font-family: 'Open Sans', verdana, arial, sans-serif; font-size: 12px; fill: rgb(68, 68, 68); fill-opacity: 1; white-space: pre;">100</text></g><g class="ytick"><text text-anchor="end" x="-1" y="4.199999999999999" transform="translate(0,90.8)" style="font-family: 'Open Sans', verdana, arial, sans-serif; font-size: 12px; fill: rgb(68, 68, 68); fill-opacity: 1; white-space: pre;">150</text></g><g class="ytick"><text text-anchor="end" x="-1" y="4.199999999999999" transform="translate(0,16.5)" style="font-family: 'Open Sans', verdana, arial, sans-serif; font-size: 12px; fill: rgb(68, 68, 68); fill-opacity: 1; white-space: pre;">200</text></g></g><g class="overaxes-above"/></g></g><g class="ternarylayer"/><g class="geolayer"/><g class="layer-above"><g class="imagelayer"/><g class="shapelayer"/></g><g class="pielayer"/><g class="glimages"/><defs id="topdefs-59b4d9"><g class="clips"/></defs><g class="infolayer"><g class="g-gtitle"><text class="gtitle" x="350" y="30" text-anchor="middle" style="font-family: 'Open Sans', verdana, arial, sans-serif; font-size: 17px; fill: rgb(68, 68, 68); opacity: 1; font-weight: normal; white-space: pre;">Average Episode Reward</text></g><g class="g-xtitle"/><g class="g-ytitle"/></g></svg>