<svg class="main-svg" xmlns="http://www.w3.org/2000/svg" xmlns:xlink="http://www.w3.org/1999/xlink" width="700" height="450" viewBox="0 0 700 450"><rect x="0" y="0" width="700" height="450" style="fill: rgb(255, 255, 255); fill-opacity: 1;"/><defs id="defs-ffac9c"><g class="clips"><clipPath class="plotclip" id="clipffac9cxyplot"><rect width="580" height="330"/></clipPath><clipPath class="axesclip" id="clipffac9cx"><rect x="60" y="0" width="580" height="450"/></clipPath><clipPath class="axesclip" id="clipffac9cy"><rect x="0" y="60" width="700" height="330"/></clipPath><clipPath class="axesclip" id="clipffac9cxy"><rect x="60" y="60" width="580" height="330"/></clipPath></g><g class="gradients"/></defs><g class="bglayer"><rect class="bg" x="60" y="60" width="580" height="330" style="fill: rgb(255, 255, 255); fill-opacity: 1; stroke-width: 0;"/></g><g class="layer-below"><g class="imagelayer"/><g class="shapelayer"/></g><g class="cartesianlayer"><g class="subplot xy"><g class="layer-subplot"><g class="shapelayer"/><g class="imagelayer"/></g><g class="gridlayer" transform="translate(60,60)"><path class="xgrid crisp" d="M0,0v330" transform="translate(112.06,0)" style="stroke: rgb(238, 238, 238); stroke-opacity: 1; stroke-width: 1px;"/><path class="xgrid crisp" d="M0,0v330" transform="translate(224.11,0)" style="stroke: rgb(238, 238, 238); stroke-opacity: 1; stroke-width: 1px;"/><path class="xgrid crisp" d="M0,0v330" transform="translate(336.17,0)" style="stroke: rgb(238, 238, 238); stroke-opacity: 1; stroke-width: 1px;"/><path class="xgrid crisp" d="M0,0v330" transform="translate(448.22,0)" style="stroke: rgb(238, 238, 238); stroke-opacity: 1; stroke-width: 1px;"/><path class="xgrid crisp" d="M0,0v330" transform="translate(560.28,0)" style="stroke: rgb(238, 238, 238); stroke-opacity: 1; stroke-width: 1px;"/><path class="ygrid crisp" d="M0,0h580" transform="translate(0,277.1)" style="stroke: rgb(238, 238, 238); stroke-opacity: 1; stroke-width: 1px;"/><path class="ygrid crisp" d="M0,0h580" transform="translate(0,240.71)" style="stroke: rgb(238, 238, 238); stroke-opacity: 1; stroke-width: 1px;"/><path class="ygrid crisp" d="M0,0h580" transform="translate(0,204.31)" style="stroke: rgb(238, 238, 238); stroke-opacity: 1; stroke-width: 1px;"/><path class="ygrid crisp" d="M0,0h580" transform="translate(0,167.91)" style="stroke: rgb(238, 238, 238); stroke-opacity: 1; stroke-width: 1px;"/><path class="ygrid crisp" d="M0,0h580" transform="translate(0,131.51)" style="stroke: rgb(238, 238, 238); stroke-opacity: 1; stroke-width: 1px;"/><path class="ygrid crisp" d="M0,0h580" transform="translate(0,95.12)" style="stroke: rgb(238, 238, 238); stroke-opacity: 1; stroke-width: 1px;"/><path class="ygrid crisp" d="M0,0h580" transform="translate(0,58.72)" style="stroke: rgb(238, 238, 238); stroke-opacity: 1; stroke-width: 1px;"/><path class="ygrid crisp" d="M0,0h580" transform="translate(0,22.32)" style="stroke: rgb(238, 238, 238); stroke-opacity: 1; stroke-width: 1px;"/></g><g class="overgrid"/><g class="zerolinelayer" transform="translate(60,60)"><path class="xzl zl crisp" d="M0,0v330" transform="translate(0,0)" style="stroke: rgb(68, 68, 68); stroke-opacity: 1; stroke-width: 1px;"/><path class="yzl zl crisp" d="M0,0h580" transform="translate(0,313.5)" style="stroke: rgb(68, 68, 68); stroke-opacity: 1; stroke-width: 1px;"/></g><g class="overzero"/><path class="xlines-below"/><path class="ylines-below"/><g class="overlines-below"/><g class="xaxislayer-below"/><g class="yaxislayer-below"/><g class="overaxes-below"/><g class="plot" transform="translate(60, 60)" clip-path="url(#clipffac9cxyplot)"><g class="imagelayer"/><g class="maplayer"/><g class="barlayer"/><g class="carpetlayer"/><g class="boxlayer"/><g class="scatterlayer"><g class="trace scatter trace5098f2" style="stroke-miterlimit: 2; opacity: 1;"><path class="js-line" d="M0,313.5L45.49,313.32L45.72,312.59L46.39,310.84L46.62,309.67L52.67,292.58L52.89,292.29L55.13,288.62L55.36,288.29L59.84,284.45L60.06,284.4L67.68,283.55L67.91,283.73L74.63,303.32L74.85,303.6L77.09,307.59L77.32,307.87L82.47,312.14L82.7,312.18L89.64,312.81L89.87,312.81L109.37,313.09L109.59,312.75L112.28,307.96L112.5,307.86L116.54,305.92L116.76,305.88L126.62,303.14L126.85,303.13L132,301.97L132.23,302.41L134.69,306.19L134.91,306.27L136.26,306.8L136.48,306.99L140.52,307.21L140.74,307.12L145.22,307.45L145.45,307.51L154.86,308.07L155.09,308.06L157.33,308.16L157.55,308.29L192.06,309.25L192.29,309.18L202.6,309.35L202.82,309.39L206.85,309.2L207.08,309.17L218.28,309.46L218.51,309.44L224.78,309.31L225.01,309.32L228.37,309.3L228.59,309.3L266.47,308.94L266.69,308.6L269.38,306.23L269.61,306.18L274.76,304.4L274.98,304.37L281.48,302.54L281.71,302.57L288.66,299.99L288.88,300.33L290.9,302.25L291.12,302.28L293.59,302.62L293.81,302.59L294.93,302.66L295.15,302.72L297.17,302.72L297.4,302.69L299.41,302.44L299.64,302.42L300.98,302.32L301.21,302.35L303,302.54L303.22,302.36L311.74,302.35L311.96,302.3L313.53,301.99L313.76,301.77L317.57,300.91L317.79,300.71L330.56,301.2L330.79,301.01L334.82,301.37L335.05,301.12L336.39,300.84L336.62,300.89L339.3,301.34L339.53,301.42L341.55,301.7L341.77,301.74L345.58,301.17L345.8,301.14L350.51,300.84L350.73,300.85L352.3,301.03L352.53,301.01L356.34,300.75L356.56,300.87L360.15,300.69L360.37,300.55L365.3,300.15L365.53,300.25L371.35,299.73L371.58,299.47L374.27,299.35L374.49,299.23L377.4,299.15L377.63,299.25L378.52,298.98L378.75,298.88L379.64,298.8L379.87,298.99L381.44,299.49L381.66,299.54L384.13,300.12L384.35,300.38L385.47,299.98L385.7,299.79L387.94,299.52L388.16,299.29L389.28,298.36L389.51,298.4L392.19,298.38L392.42,298.3L393.76,299.11L393.99,299.33L395.56,299.26L395.78,298.55L397.13,297.76L397.35,297.55L398.25,297.23L398.47,296.55L399.37,296.16L399.59,296.22L400.71,296.4L400.94,296.53L402.73,295.86L402.95,295.57L404.52,294.76L404.74,294.65L406.99,292.01L407.21,292.16L407.43,292.14L409.45,290.26L409.68,290.25L414.83,287.47L415.05,286.66L416.17,285.57L416.4,285.55L417.07,284.96L417.3,284.42L417.97,283.98L418.19,284.56L419.09,284.73L419.31,284.6L420.66,284.81L420.88,285.41L421.33,285.44L421.55,285.09L421.78,284.92L422.9,283.08L423.12,283.23L423.35,282.9L424.91,281.69L425.14,281.88L425.36,281.96L425.81,280.56L426.04,279.89L427.83,279.61L428.05,279.97L431.41,280.39L431.64,280.2L434.55,280.04L434.78,279.76L437.24,278.11L437.47,278.62L438.14,279.2L438.36,278.98L438.59,278.8L439.93,278.7L440.15,278.46L441.05,278.76L441.28,278.46L442.4,278.58L442.62,278.21L443.74,276.77L443.96,276.89L444.19,276.76L446.21,277.12L446.43,277.08L447.33,276.84L447.55,276.6L448,276.87L448.22,277.66L449.12,277.51L449.34,277.34L452.03,274.35L452.26,274.29L453.38,274.53L453.6,274.19L455.39,273.41L455.62,273.92L456.29,273.58L456.51,274.02L457.41,273.92L457.64,274.02L458.76,273.38L458.98,273.68L460.32,273.1L460.55,272.29L462.34,269.15L462.57,269.31L463.01,268.73L463.24,267.93L464.58,266.22L464.81,265.93L465.7,267.22L466.15,266.76L466.38,266.39L467.27,264.89L467.5,264.96L469.06,263.1L469.29,263.42L470.19,262.68L470.41,262.15L471.98,260.93L472.2,260.14L472.87,259.68L473.1,260.32L473.32,260.37L474.67,259.85L474.89,259.73L476.01,258.66L476.24,259.04L477.81,256.78L478.03,254.73L479.37,251.98L479.6,252.04L480.49,250.34L480.72,250.86L480.94,250.76L481.62,250.13L481.84,249.5L482.74,249.08L482.96,249.42L483.18,249.75L483.63,249.15L483.86,249.27L484.75,250.27L484.98,250.04L485.2,249.68L485.65,250.39L485.87,249.61L486.1,249.51L486.32,248.42L486.99,248.63L487.22,248.87L488.34,248.38L488.56,248.49L489.01,248.85L489.23,247.72L490.58,248.4L490.8,247.86L491.03,247.85L491.25,246.14L491.48,246.62L491.7,245.84L491.92,245.8L494.84,247.65L495.06,247.35L495.96,246.62L496.18,246.84L497.3,246.62L497.53,247.27L499.1,247.15L499.32,245.98L500.22,246.92L500.44,248.26L501.34,250.36L501.56,250.06L501.79,249.37L502.01,248L502.46,248.71L502.68,248.59L504.92,245.11L505.15,245.44L505.6,244.64L506.04,244.89L506.27,245.17L507.16,242.64L507.39,243.03L508.51,241.88L508.73,242.64L510.97,239.37L511.2,239.43L511.65,241.35L512.32,241.03L512.54,240.69L512.99,239.93L513.44,240.25L513.66,241.42L514.11,241.4L514.34,239.48L514.78,238.19L515.23,238.63L515.46,238.38L517.02,236.27L517.25,236.25L517.7,237.93L517.92,236.75L518.15,236.2L518.82,236.37L519.04,236.12L519.27,236.02L521.28,232.77L521.51,233.27L521.96,234.75L522.4,234.58L522.63,233.21L523.08,233.37L523.3,233.8L523.97,233.12L524.2,233.64L524.42,234.57L524.87,233.31L525.32,233.59L525.54,234.5L525.99,234.02L526.89,235.74L527.11,235.53L527.33,235.44L527.56,234.63L528.01,235.77L528.23,235.77L529.57,238.51L529.8,237.92L530.02,237.46L530.25,237.24L530.47,237.58L530.7,238.24L531.82,237.86L532.04,238.06L532.71,239.21L533.16,238.96L533.38,238.69L533.61,238.86L533.83,238.54L534.06,237.58L534.95,236.49L535.18,235.18L536.52,231.97L536.75,233.02L537.19,233.09L537.42,232.45L538.09,231.36L538.32,231.47L538.54,232.28L541.23,226.32L541.45,226.05L542.57,221.83L542.8,220.07L543.47,218.21L543.69,216.42L544.14,214.98L544.37,213.48L546.38,207.64L546.61,205.69L551.54,177.25L551.76,174.95L556.02,141.43L556.24,139.21L560.73,105.33L560.95,103.67L564.76,78.54L564.98,79.34L568.12,56.52L568.35,54.66L570.59,44.02L570.81,43.84L571.04,43.86L571.26,42.73L573.28,33.86L573.5,32.2L574.85,28.81L575.07,29.27L577.09,21.59L577.31,22.31L578.66,18.69L578.88,18.84L579.1,18.89L579.33,17.94L579.55,16.5L580,17.06" style="vector-effect: non-scaling-stroke; fill: none; stroke: rgb(31, 119, 180); stroke-opacity: 1; stroke-width: 2px; opacity: 1;"/><g class="points"/></g></g></g><g class="overplot"/><path class="xlines-above crisp" transform="translate(60,60)" d="M-1,330.5H580" style="fill: none; stroke-width: 1px; stroke: rgb(0, 0, 0); stroke-opacity: 0;"/><path class="ylines-above crisp" transform="translate(60,60)" d="M-0.5,0V330" style="fill: none; stroke-width: 1px; stroke: rgb(0, 0, 0); stroke-opacity: 0;"/><g class="overlines-above"/><g class="xaxislayer-above" transform="translate(60,60)"><g class="xtick"><text text-anchor="middle" x="0" y="343" transform="translate(0,0)" style="font-family: 'Open Sans', verdana, arial, sans-serif; font-size: 12px; fill: rgb(68, 68, 68); fill-opacity: 1; white-space: pre;">0</text></g><g class="xtick"><text text-anchor="middle" x="0" y="343" transform="translate(112.06,0)" style="font-family: 'Open Sans', verdana, arial, sans-serif; font-size: 12px; fill: rgb(68, 68, 68); fill-opacity: 1; white-space: pre;">500</text></g><g class="xtick"><text text-anchor="middle" x="0" y="343" transform="translate(224.11,0)" style="font-family: 'Open Sans', verdana, arial, sans-serif; font-size: 12px; fill: rgb(68, 68, 68); fill-opacity: 1; white-space: pre;">1000</text></g><g class="xtick"><text text-anchor="middle" x="0" y="343" transform="translate(336.17,0)" style="font-family: 'Open Sans', verdana, arial, sans-serif; font-size: 12px; fill: rgb(68, 68, 68); fill-opacity: 1; white-space: pre;">1500</text></g><g class="xtick"><text text-anchor="middle" x="0" y="343" transform="translate(448.22,0)" style="font-family: 'Open Sans', verdana, arial, sans-serif; font-size: 12px; fill: rgb(68, 68, 68); fill-opacity: 1; white-space: pre;">2000</text></g><g class="xtick"><text text-anchor="middle" x="0" y="343" transform="translate(560.28,0)" style="font-family: 'Open Sans', verdana, arial, sans-serif; font-size: 12px; fill: rgb(68, 68, 68); fill-opacity: 1; white-space: pre;">2500</text></g></g><g class="yaxislayer-above" transform="translate(60,60)"><g class="ytick"><text text-anchor="end" x="-1" y="4.199999999999999" transform="translate(0,313.5)" style="font-family: 'Open Sans', verdana, arial, sans-serif; font-size: 12px; fill: rgb(68, 68, 68); fill-opacity: 1; white-space: pre;">0</text></g><g class="ytick"><text text-anchor="end" x="-1" y="4.199999999999999" transform="translate(0,277.1)" style="font-family: 'Open Sans', verdana, arial, sans-serif; font-size: 12px; fill: rgb(68, 68, 68); fill-opacity: 1; white-space: pre;">1</text></g><g class="ytick"><text text-anchor="end" x="-1" y="4.199999999999999" transform="translate(0,240.71)" style="font-family: 'Open Sans', verdana, arial, sans-serif; font-size: 12px; fill: rgb(68, 68, 68); fill-opacity: 1; white-space: pre;">2</text></g><g class="ytick"><text text-anchor="end" x="-1" y="4.199999999999999" transform="translate(0,204.31)" style="font-family: 'Open Sans', verdana, arial, sans-serif; font-size: 12px; fill: rgb(68, 68, 68); fill-opacity: 1; white-space: pre;">3</text></g><g class="ytick"><text text-anchor="end" x="-1" y="4.199999999999999" transform="translate(0,167.91)" style="font-family: 'Open Sans', verdana, arial, sans-serif; font-size: 12px; fill: rgb(68, 68, 68); fill-opacity: 1; white-space: pre;">4</text></g><g class="ytick"><text text-anchor="end" x="-1" y="4.199999999999999" transform="translate(0,131.51)" style="font-family: 'Open Sans', verdana, arial, sans-serif; font-size: 12px; fill: rgb(68, 68, 68); fill-opacity: 1; white-space: pre;">5</text></g><g class="ytick"><text text-anchor="end" x="-1" y="4.199999999999999" transform="translate(0,95.12)" style="font-family: 'Open Sans', verdana, arial, sans-serif; font-size: 12px; fill: rgb(68, 68, 68); fill-opacity: 1; white-space: pre;">6</text></g><g class="ytick"><text text-anchor="end" x="-1" y="4.199999999999999" transform="translate(0,58.72)" style="font-family: 'Open Sans', verdana, arial, sans-serif; font-size: 12px; fill: rgb(68, 68, 68); fill-opacity: 1; white-space: pre;">7</text></g><g class="ytick"><text text-anchor="end" x="-1" y="4.199999999999999" transform="translate(0,22.32)" style="font-family: 'Open Sans', verdana, arial, sans-serif; font-size: 12px; fill: rgb(68, 68, 68); fill-opacity: 1; white-space: pre;">8</text></g></g><g class="overaxes-above"/></g></g><g class="ternarylayer"/><g class="geolayer"/><g class="layer-above"><g class="imagelayer"/><g class="shapelayer"/></g><g class="pielayer"/><g class="glimages"/><defs id="topdefs-ffac9c"><g class="clips"/></defs><g class="infolayer"><g class="g-gtitle"><text class="gtitle" x="350" y="30" text-anchor="middle" style="font-family: 'Open Sans', verdana, arial, sans-serif; font-size: 17px; fill: rgb(68, 68, 68); opacity: 1; font-weight: normal; white-space: pre;">Average Episode Q Value Loss</text></g><g class="g-xtitle"/><g class="g-ytitle"/></g></svg>